<svg xmlns="http://www.w3.org/2000/svg" viewBox="0 0 32.62 15.82"><title>logo_lixt</title><g id="Camada_2" data-name="Camada 2"><g id="Camada_1-2" data-name="Camada 1"><path d="M2.8.88v14.8H0V.88Z"/><path d="M5.75,2.81a1.53,1.53,0,0,1-.49-1.17A1.53,1.53,0,0,1,5.75.47,1.73,1.73,0,0,1,7,0,1.73,1.73,0,0,1,8.21.47,1.53,1.53,0,0,1,8.7,1.64a1.53,1.53,0,0,1-.49,1.17A1.73,1.73,0,0,1,7,3.28,1.73,1.73,0,0,1,5.75,2.81ZM8.36,4.6V15.68H5.56V4.6Z"/><path d="M17.24,15.68,15,12.24l-2,3.44h-3l3.62-5.56L9.9,4.6h3.16L15.32,8l2-3.42h3l-3.64,5.52,3.68,5.56Z"/><path d="M25.18,6.9v5.36a1.07,1.07,0,0,0,.27.81,1.3,1.3,0,0,0,.91.25h1.3v2.36H25.9q-3.54,0-3.54-3.44V6.9H21V4.6h1.32V1.86h2.82V4.6h2.48V6.9Z"/><path d="M29.67,15.35a1.64,1.64,0,0,1,0-2.34,1.75,1.75,0,0,1,1.25-.47,1.69,1.69,0,0,1,1.22.47,1.67,1.67,0,0,1,0,2.34,1.69,1.69,0,0,1-1.22.47A1.75,1.75,0,0,1,29.67,15.35Z"/></g></g></svg>